<svg xmlns="http://www.w3.org/2000/svg" viewBox="0 0 240 192" fill="none"><defs><path id="q" d="M62 38c0-9.5-7-16-15.5-16C38 22 32 28.2 32 36.2c0 7.9 6 13.8 14 13.8 1.1 0 2.2-.1 3.2-.4C48 60 42.2 65.6 34.6 68.2l3.4 6.8C50.6 70.6 62 59.6 62 43.6Z"/></defs><g transform="translate(72 0)"><circle cx="48" cy="48" r="37" stroke="#F2F2F2" stroke-width="5"/><path d="M54.4 11.6A37 37 0 0 1 78.3 26.8" stroke="#A3DD42" stroke-width="5"/><use href="#q" transform="translate(26.5 31.6) scale(0.62) translate(-32 -22)" fill="#F2F2F2"/><use href="#q" transform="translate(51 31.6) scale(0.62) translate(-32 -22)" fill="#F2F2F2"/></g><text x="123" y="162" text-anchor="middle" font-size="25" font-weight="500" letter-spacing="7" fill="#F2F2F2" font-family="'Bricolage Grotesque',system-ui,sans-serif">CULTIV</text></svg>
