<svg width="64" height="64" viewBox="0 0 64 64" xmlns="http://www.w3.org/2000/svg" role="img">
  <title>Cultiv  Registro + Sulco (bold)</title>
  <defs>
    <linearGradient id="paper" x1="0.1" y1="0" x2="0.95" y2="1">
      <stop offset="0%" stop-color="#FAF8F4"/>
      <stop offset="100%" stop-color="#E8E4DC"/>
    </linearGradient>
  </defs>
  <path d="M8 12 L52 10 L56 28 L54 52 L12 54 L6 34 Z" fill="url(#paper)" stroke="#C8C4BC" stroke-width="0.65"/>
  <path d="M13 15 H24 M13 15 V26" stroke="#C4705A" stroke-width="1.05" stroke-linecap="square" opacity="0.62"/>
  <path d="M45 41 H34 M45 41 V50" stroke="#C4705A" stroke-width="1.05" stroke-linecap="square" opacity="0.62"/>
  <path d="M16 31 C25 19 37 21 46 31 C39 39 27 41 18 37" fill="none" stroke="#C4705A" stroke-width="3.6" stroke-linecap="round" opacity="0.24" transform="translate(1.6 1.3)"/>
  <path d="M16 31 C25 19 37 21 46 31 C39 39 27 41 18 37" fill="none" stroke="#1A1A18" stroke-width="3.6" stroke-linecap="round"/>
  <circle cx="20" cy="40" r="2.5" fill="#C4705A" opacity="0.88"/>
  <circle cx="20" cy="40" r="5" fill="#C4705A" opacity="0.13"/>
</svg>
