<svg xmlns="http://www.w3.org/2000/svg" viewBox="0 0 480 360" role="img" aria-labelledby="a01-title">
  <title id="a01-title">Blocos de texto gen�rico repetitivo</title>
  <rect width="480" height="360" fill="#f5f0e8"/>
  <text x="24" y="36" font-family="'JetBrains Mono', monospace" font-size="10" fill="#6b9080" letter-spacing="0.18em">[GEN�RICO]</text>
  <g transform="translate(24 52)">
    <rect width="432" height="88" fill="#faf7f2" stroke="#1e2f2a" stroke-width="1"/>
    <rect x="20" y="24" width="280" height="8" rx="0" fill="#ddd4c8"/>
    <rect x="20" y="40" width="360" height="6" rx="0" fill="#ddd4c8" opacity="0.85"/>
    <rect x="20" y="52" width="320" height="6" rx="0" fill="#ddd4c8" opacity="0.7"/>
    <text x="20" y="76" font-family="Inter, sans-serif" font-size="11" fill="#5c6b66" font-style="italic">Em um mundo cada vez mais acelerado&</text>
  </g>
  <g transform="translate(24 152)">
    <rect width="432" height="88" fill="#faf7f2" stroke="#1e2f2a" stroke-width="1"/>
    <rect x="20" y="24" width="280" height="8" rx="0" fill="#ddd4c8"/>
    <rect x="20" y="40" width="360" height="6" rx="0" fill="#ddd4c8" opacity="0.85"/>
    <rect x="20" y="52" width="320" height="6" rx="0" fill="#ddd4c8" opacity="0.7"/>
    <text x="20" y="76" font-family="Inter, sans-serif" font-size="11" fill="#5c6b66" font-style="italic">A produtividade n�o � sobre trabalhar mais horas&</text>
  </g>
  <g transform="translate(24 252)">
    <rect width="432" height="88" fill="#faf7f2" stroke="#1e2f2a" stroke-width="1"/>
    <rect x="20" y="24" width="280" height="8" rx="0" fill="#ddd4c8"/>
    <rect x="20" y="40" width="360" height="6" rx="0" fill="#ddd4c8" opacity="0.85"/>
    <rect x="20" y="52" width="320" height="6" rx="0" fill="#ddd4c8" opacity="0.7"/>
    <text x="20" y="76" font-family="Inter, sans-serif" font-size="11" fill="#5c6b66" font-style="italic">No final do dia, o que importa � entregar&</text>
  </g>
</svg>
